<mxfile host="app.diagrams.net" modified="2022-11-24T05:20:52.953Z" agent="5.0 (Windows NT 10.0; Win64; x64) AppleWebKit/537.36 (KHTML, like Gecko) Chrome/107.0.0.0 Safari/537.36" etag="EPpGuOLehF5AzWoVxs7g" version="20.5.3" type="github">
  <diagram id="prtHgNgQTEPvFCAcTncT" name="Page-1">
    <mxGraphModel dx="2003" dy="1268" grid="1" gridSize="10" guides="1" tooltips="1" connect="1" arrows="1" fold="1" page="1" pageScale="1" pageWidth="980" pageHeight="1390" math="0" shadow="0">
      <root>
        <mxCell id="0" />
        <mxCell id="1" parent="0" />
        <mxCell id="6QzcaGz9S-YZrrsxXRJN-16" style="edgeStyle=orthogonalEdgeStyle;rounded=0;orthogonalLoop=1;jettySize=auto;html=1;exitX=0.5;exitY=1;exitDx=0;exitDy=0;" parent="1" source="6QzcaGz9S-YZrrsxXRJN-7" target="6QzcaGz9S-YZrrsxXRJN-15" edge="1">
          <mxGeometry relative="1" as="geometry" />
        </mxCell>
        <UserObject label="APP" treeRoot="1" id="6QzcaGz9S-YZrrsxXRJN-7">
          <mxCell style="whiteSpace=wrap;html=1;align=center;treeFolding=1;treeMoving=1;newEdgeStyle={&quot;edgeStyle&quot;:&quot;elbowEdgeStyle&quot;,&quot;startArrow&quot;:&quot;none&quot;,&quot;endArrow&quot;:&quot;none&quot;};fillColor=#d5e8d4;strokeColor=#82b366;" parent="1" vertex="1">
            <mxGeometry x="902.5" y="80" width="120" height="60" as="geometry" />
          </mxCell>
        </UserObject>
        <mxCell id="6QzcaGz9S-YZrrsxXRJN-18" style="edgeStyle=orthogonalEdgeStyle;rounded=0;orthogonalLoop=1;jettySize=auto;html=1;" parent="1" source="6QzcaGz9S-YZrrsxXRJN-15" target="6QzcaGz9S-YZrrsxXRJN-17" edge="1">
          <mxGeometry relative="1" as="geometry">
            <Array as="points">
              <mxPoint x="963" y="400" />
              <mxPoint x="290" y="400" />
            </Array>
          </mxGeometry>
        </mxCell>
        <mxCell id="6QzcaGz9S-YZrrsxXRJN-58" style="edgeStyle=orthogonalEdgeStyle;rounded=0;orthogonalLoop=1;jettySize=auto;html=1;" parent="1" source="6QzcaGz9S-YZrrsxXRJN-15" target="6QzcaGz9S-YZrrsxXRJN-57" edge="1">
          <mxGeometry relative="1" as="geometry">
            <Array as="points">
              <mxPoint x="962" y="400" />
              <mxPoint x="1540" y="400" />
            </Array>
          </mxGeometry>
        </mxCell>
        <mxCell id="6QzcaGz9S-YZrrsxXRJN-92" style="edgeStyle=orthogonalEdgeStyle;rounded=0;orthogonalLoop=1;jettySize=auto;html=1;entryX=0;entryY=0.5;entryDx=0;entryDy=0;startArrow=none;" parent="1" source="XX8KxOLf1T6mspPhm48e-7" target="6QzcaGz9S-YZrrsxXRJN-91" edge="1">
          <mxGeometry relative="1" as="geometry">
            <mxPoint x="1612.5" y="420" as="targetPoint" />
            <Array as="points">
              <mxPoint x="1490" y="320" />
              <mxPoint x="1490" y="320" />
            </Array>
          </mxGeometry>
        </mxCell>
        <mxCell id="XX8KxOLf1T6mspPhm48e-5" style="edgeStyle=orthogonalEdgeStyle;rounded=0;orthogonalLoop=1;jettySize=auto;html=1;" edge="1" parent="1" source="6QzcaGz9S-YZrrsxXRJN-15" target="6QzcaGz9S-YZrrsxXRJN-42">
          <mxGeometry relative="1" as="geometry">
            <Array as="points">
              <mxPoint x="962.5" y="400" />
              <mxPoint x="782.5" y="400" />
            </Array>
          </mxGeometry>
        </mxCell>
        <UserObject label="router-view" treeRoot="1" id="6QzcaGz9S-YZrrsxXRJN-15">
          <mxCell style="whiteSpace=wrap;html=1;align=center;treeFolding=1;treeMoving=1;newEdgeStyle={&quot;edgeStyle&quot;:&quot;elbowEdgeStyle&quot;,&quot;startArrow&quot;:&quot;none&quot;,&quot;endArrow&quot;:&quot;none&quot;};fillColor=#d5e8d4;strokeColor=#82b366;" parent="1" vertex="1">
            <mxGeometry x="902.5" y="180" width="120" height="60" as="geometry" />
          </mxCell>
        </UserObject>
        <mxCell id="XX8KxOLf1T6mspPhm48e-24" style="edgeStyle=orthogonalEdgeStyle;rounded=0;orthogonalLoop=1;jettySize=auto;html=1;" edge="1" parent="1" source="6QzcaGz9S-YZrrsxXRJN-17">
          <mxGeometry relative="1" as="geometry">
            <mxPoint x="290" y="620.0000000000002" as="targetPoint" />
          </mxGeometry>
        </mxCell>
        <mxCell id="XX8KxOLf1T6mspPhm48e-25" style="edgeStyle=orthogonalEdgeStyle;rounded=0;orthogonalLoop=1;jettySize=auto;html=1;" edge="1" parent="1" source="6QzcaGz9S-YZrrsxXRJN-17" target="6QzcaGz9S-YZrrsxXRJN-23">
          <mxGeometry relative="1" as="geometry">
            <Array as="points">
              <mxPoint x="290" y="570" />
              <mxPoint x="93" y="570" />
            </Array>
          </mxGeometry>
        </mxCell>
        <mxCell id="XX8KxOLf1T6mspPhm48e-26" style="edgeStyle=orthogonalEdgeStyle;rounded=0;orthogonalLoop=1;jettySize=auto;html=1;entryX=0.5;entryY=0;entryDx=0;entryDy=0;" edge="1" parent="1" source="6QzcaGz9S-YZrrsxXRJN-17" target="6QzcaGz9S-YZrrsxXRJN-31">
          <mxGeometry relative="1" as="geometry">
            <Array as="points">
              <mxPoint x="290" y="570" />
              <mxPoint x="458" y="570" />
            </Array>
          </mxGeometry>
        </mxCell>
        <UserObject label="MainView" treeRoot="1" id="6QzcaGz9S-YZrrsxXRJN-17">
          <mxCell style="whiteSpace=wrap;html=1;align=center;treeFolding=1;treeMoving=1;newEdgeStyle={&quot;edgeStyle&quot;:&quot;elbowEdgeStyle&quot;,&quot;startArrow&quot;:&quot;none&quot;,&quot;endArrow&quot;:&quot;none&quot;};fillColor=#d5e8d4;strokeColor=#82b366;" parent="1" vertex="1">
            <mxGeometry x="230" y="420" width="120" height="60" as="geometry" />
          </mxCell>
        </UserObject>
        <mxCell id="XX8KxOLf1T6mspPhm48e-42" style="edgeStyle=orthogonalEdgeStyle;rounded=0;orthogonalLoop=1;jettySize=auto;html=1;" edge="1" parent="1" source="6QzcaGz9S-YZrrsxXRJN-23">
          <mxGeometry relative="1" as="geometry">
            <mxPoint x="92.5" y="740.0000000000002" as="targetPoint" />
          </mxGeometry>
        </mxCell>
        <UserObject label="MovieList" treeRoot="1" id="6QzcaGz9S-YZrrsxXRJN-23">
          <mxCell style="whiteSpace=wrap;html=1;align=center;treeFolding=1;treeMoving=1;newEdgeStyle={&quot;edgeStyle&quot;:&quot;elbowEdgeStyle&quot;,&quot;startArrow&quot;:&quot;none&quot;,&quot;endArrow&quot;:&quot;none&quot;};fillColor=#ffe6cc;strokeColor=#d79b00;" parent="1" vertex="1">
            <mxGeometry x="20" y="620" width="145" height="80" as="geometry" />
          </mxCell>
        </UserObject>
        <mxCell id="XX8KxOLf1T6mspPhm48e-32" style="edgeStyle=orthogonalEdgeStyle;rounded=0;orthogonalLoop=1;jettySize=auto;html=1;" edge="1" parent="1" source="6QzcaGz9S-YZrrsxXRJN-25">
          <mxGeometry relative="1" as="geometry">
            <mxPoint x="290" y="740.0000000000002" as="targetPoint" />
          </mxGeometry>
        </mxCell>
        <UserObject label="MovieGenreList" treeRoot="1" id="6QzcaGz9S-YZrrsxXRJN-25">
          <mxCell style="whiteSpace=wrap;html=1;align=center;treeFolding=1;treeMoving=1;newEdgeStyle={&quot;edgeStyle&quot;:&quot;elbowEdgeStyle&quot;,&quot;startArrow&quot;:&quot;none&quot;,&quot;endArrow&quot;:&quot;none&quot;};fillColor=#ffe6cc;strokeColor=#d79b00;" parent="1" vertex="1">
            <mxGeometry x="220" y="620" width="140" height="80" as="geometry" />
          </mxCell>
        </UserObject>
        <mxCell id="XX8KxOLf1T6mspPhm48e-38" style="edgeStyle=orthogonalEdgeStyle;rounded=0;orthogonalLoop=1;jettySize=auto;html=1;" edge="1" parent="1" source="6QzcaGz9S-YZrrsxXRJN-31">
          <mxGeometry relative="1" as="geometry">
            <mxPoint x="457.5" y="745.0000000000002" as="targetPoint" />
          </mxGeometry>
        </mxCell>
        <UserObject label="FollowingLikeMovieList" treeRoot="1" id="6QzcaGz9S-YZrrsxXRJN-31">
          <mxCell style="whiteSpace=wrap;html=1;align=center;treeFolding=1;treeMoving=1;newEdgeStyle={&quot;edgeStyle&quot;:&quot;elbowEdgeStyle&quot;,&quot;startArrow&quot;:&quot;none&quot;,&quot;endArrow&quot;:&quot;none&quot;};fillColor=#ffe6cc;strokeColor=#d79b00;" parent="1" vertex="1">
            <mxGeometry x="390" y="620" width="135" height="80" as="geometry" />
          </mxCell>
        </UserObject>
        <mxCell id="XX8KxOLf1T6mspPhm48e-2" style="edgeStyle=orthogonalEdgeStyle;rounded=0;orthogonalLoop=1;jettySize=auto;html=1;" edge="1" parent="1" source="6QzcaGz9S-YZrrsxXRJN-42" target="6QzcaGz9S-YZrrsxXRJN-86">
          <mxGeometry relative="1" as="geometry">
            <Array as="points">
              <mxPoint x="782.5" y="570" />
              <mxPoint x="615.5" y="570" />
            </Array>
          </mxGeometry>
        </mxCell>
        <mxCell id="XX8KxOLf1T6mspPhm48e-3" style="edgeStyle=orthogonalEdgeStyle;rounded=0;orthogonalLoop=1;jettySize=auto;html=1;" edge="1" parent="1" source="6QzcaGz9S-YZrrsxXRJN-42" target="6QzcaGz9S-YZrrsxXRJN-87">
          <mxGeometry relative="1" as="geometry" />
        </mxCell>
        <mxCell id="XX8KxOLf1T6mspPhm48e-4" style="edgeStyle=orthogonalEdgeStyle;rounded=0;orthogonalLoop=1;jettySize=auto;html=1;" edge="1" parent="1" source="6QzcaGz9S-YZrrsxXRJN-42" target="XX8KxOLf1T6mspPhm48e-1">
          <mxGeometry relative="1" as="geometry">
            <Array as="points">
              <mxPoint x="782.5" y="570" />
              <mxPoint x="954.5" y="570" />
            </Array>
          </mxGeometry>
        </mxCell>
        <UserObject label="DetailView" treeRoot="1" id="6QzcaGz9S-YZrrsxXRJN-42">
          <mxCell style="whiteSpace=wrap;html=1;align=center;treeFolding=1;treeMoving=1;newEdgeStyle={&quot;edgeStyle&quot;:&quot;elbowEdgeStyle&quot;,&quot;startArrow&quot;:&quot;none&quot;,&quot;endArrow&quot;:&quot;none&quot;};fillColor=#d5e8d4;strokeColor=#82b366;" parent="1" vertex="1">
            <mxGeometry x="722.5" y="420" width="120" height="60" as="geometry" />
          </mxCell>
        </UserObject>
        <mxCell id="XX8KxOLf1T6mspPhm48e-55" style="edgeStyle=orthogonalEdgeStyle;rounded=0;orthogonalLoop=1;jettySize=auto;html=1;entryX=0.5;entryY=0;entryDx=0;entryDy=0;" edge="1" parent="1" source="6QzcaGz9S-YZrrsxXRJN-57" target="6QzcaGz9S-YZrrsxXRJN-61">
          <mxGeometry relative="1" as="geometry" />
        </mxCell>
        <mxCell id="XX8KxOLf1T6mspPhm48e-56" style="edgeStyle=orthogonalEdgeStyle;rounded=0;orthogonalLoop=1;jettySize=auto;html=1;" edge="1" parent="1" source="6QzcaGz9S-YZrrsxXRJN-57" target="6QzcaGz9S-YZrrsxXRJN-65">
          <mxGeometry relative="1" as="geometry">
            <Array as="points">
              <mxPoint x="1540" y="570" />
              <mxPoint x="1726" y="570" />
            </Array>
          </mxGeometry>
        </mxCell>
        <UserObject label="ProfileView" treeRoot="1" id="6QzcaGz9S-YZrrsxXRJN-57">
          <mxCell style="whiteSpace=wrap;html=1;align=center;treeFolding=1;treeMoving=1;newEdgeStyle={&quot;edgeStyle&quot;:&quot;elbowEdgeStyle&quot;,&quot;startArrow&quot;:&quot;none&quot;,&quot;endArrow&quot;:&quot;none&quot;};fillColor=#d5e8d4;strokeColor=#82b366;" parent="1" vertex="1">
            <mxGeometry x="1480" y="420" width="120" height="60" as="geometry" />
          </mxCell>
        </UserObject>
        <UserObject label="ProfileUserLikeMovie" treeRoot="1" id="6QzcaGz9S-YZrrsxXRJN-61">
          <mxCell style="whiteSpace=wrap;html=1;align=center;treeFolding=1;treeMoving=1;newEdgeStyle={&quot;edgeStyle&quot;:&quot;elbowEdgeStyle&quot;,&quot;startArrow&quot;:&quot;none&quot;,&quot;endArrow&quot;:&quot;none&quot;};fillColor=#ffe6cc;strokeColor=#d79b00;" parent="1" vertex="1">
            <mxGeometry x="1475" y="620" width="130" height="70" as="geometry" />
          </mxCell>
        </UserObject>
        <mxCell id="XX8KxOLf1T6mspPhm48e-60" style="edgeStyle=orthogonalEdgeStyle;rounded=0;orthogonalLoop=1;jettySize=auto;html=1;" edge="1" parent="1" source="6QzcaGz9S-YZrrsxXRJN-65" target="6QzcaGz9S-YZrrsxXRJN-113">
          <mxGeometry relative="1" as="geometry" />
        </mxCell>
        <UserObject label="ProfileUserReviewMovie" treeRoot="1" id="6QzcaGz9S-YZrrsxXRJN-65">
          <mxCell style="whiteSpace=wrap;html=1;align=center;treeFolding=1;treeMoving=1;newEdgeStyle={&quot;edgeStyle&quot;:&quot;elbowEdgeStyle&quot;,&quot;startArrow&quot;:&quot;none&quot;,&quot;endArrow&quot;:&quot;none&quot;};fillColor=#ffe6cc;strokeColor=#d79b00;" parent="1" vertex="1">
            <mxGeometry x="1667.18" y="620" width="127.5" height="70" as="geometry" />
          </mxCell>
        </UserObject>
        <UserObject label="LoginView" treeRoot="1" id="6QzcaGz9S-YZrrsxXRJN-67">
          <mxCell style="whiteSpace=wrap;html=1;align=center;treeFolding=1;treeMoving=1;newEdgeStyle={&quot;edgeStyle&quot;:&quot;elbowEdgeStyle&quot;,&quot;startArrow&quot;:&quot;none&quot;,&quot;endArrow&quot;:&quot;none&quot;};fillColor=#d5e8d4;strokeColor=#82b366;" parent="1" vertex="1">
            <mxGeometry x="1160" y="420" width="120" height="60" as="geometry" />
          </mxCell>
        </UserObject>
        <mxCell id="6QzcaGz9S-YZrrsxXRJN-94" style="edgeStyle=orthogonalEdgeStyle;rounded=0;orthogonalLoop=1;jettySize=auto;html=1;" parent="1" source="6QzcaGz9S-YZrrsxXRJN-71" target="6QzcaGz9S-YZrrsxXRJN-93" edge="1">
          <mxGeometry relative="1" as="geometry" />
        </mxCell>
        <mxCell id="XX8KxOLf1T6mspPhm48e-47" style="edgeStyle=orthogonalEdgeStyle;rounded=0;orthogonalLoop=1;jettySize=auto;html=1;entryX=0.5;entryY=0;entryDx=0;entryDy=0;" edge="1" parent="1" source="6QzcaGz9S-YZrrsxXRJN-71" target="6QzcaGz9S-YZrrsxXRJN-75">
          <mxGeometry relative="1" as="geometry">
            <mxPoint x="1240" y="940.0000000000002" as="targetPoint" />
            <Array as="points" />
          </mxGeometry>
        </mxCell>
        <UserObject label="CommunityView" treeRoot="1" id="6QzcaGz9S-YZrrsxXRJN-71">
          <mxCell style="whiteSpace=wrap;html=1;align=center;treeFolding=1;treeMoving=1;newEdgeStyle={&quot;edgeStyle&quot;:&quot;elbowEdgeStyle&quot;,&quot;startArrow&quot;:&quot;none&quot;,&quot;endArrow&quot;:&quot;none&quot;};fillColor=#d5e8d4;strokeColor=#82b366;" parent="1" vertex="1">
            <mxGeometry x="1150" y="850" width="120" height="60" as="geometry" />
          </mxCell>
        </UserObject>
        <mxCell id="XX8KxOLf1T6mspPhm48e-49" style="edgeStyle=orthogonalEdgeStyle;rounded=0;orthogonalLoop=1;jettySize=auto;html=1;" edge="1" parent="1" source="6QzcaGz9S-YZrrsxXRJN-75" target="6QzcaGz9S-YZrrsxXRJN-90">
          <mxGeometry relative="1" as="geometry">
            <mxPoint x="1240" y="1040.0000000000002" as="targetPoint" />
            <Array as="points" />
          </mxGeometry>
        </mxCell>
        <mxCell id="XX8KxOLf1T6mspPhm48e-51" style="edgeStyle=orthogonalEdgeStyle;rounded=0;orthogonalLoop=1;jettySize=auto;html=1;" edge="1" parent="1" source="6QzcaGz9S-YZrrsxXRJN-75">
          <mxGeometry relative="1" as="geometry">
            <mxPoint x="1382.5" y="975" as="targetPoint" />
          </mxGeometry>
        </mxCell>
        <UserObject label="ArticleList" treeRoot="1" id="6QzcaGz9S-YZrrsxXRJN-75">
          <mxCell style="whiteSpace=wrap;html=1;align=center;treeFolding=1;treeMoving=1;newEdgeStyle={&quot;edgeStyle&quot;:&quot;elbowEdgeStyle&quot;,&quot;startArrow&quot;:&quot;none&quot;,&quot;endArrow&quot;:&quot;none&quot;};fillColor=#ffe6cc;strokeColor=#d79b00;" parent="1" vertex="1">
            <mxGeometry x="1145" y="940" width="130" height="70" as="geometry" />
          </mxCell>
        </UserObject>
        <mxCell id="6QzcaGz9S-YZrrsxXRJN-83" value="MovieListItem" style="verticalLabelPosition=middle;verticalAlign=middle;html=1;shape=mxgraph.basic.layered_rect;dx=10;outlineConnect=0;whiteSpace=wrap;fillStyle=auto;labelPosition=center;align=center;fillColor=#ffe6cc;strokeColor=#d79b00;" parent="1" vertex="1">
          <mxGeometry x="390" y="740" width="140" height="90" as="geometry" />
        </mxCell>
        <mxCell id="6QzcaGz9S-YZrrsxXRJN-84" value="MovieListItem" style="verticalLabelPosition=middle;verticalAlign=middle;html=1;shape=mxgraph.basic.layered_rect;dx=10;outlineConnect=0;whiteSpace=wrap;fillStyle=auto;labelPosition=center;align=center;fillColor=#ffe6cc;strokeColor=#d79b00;" parent="1" vertex="1">
          <mxGeometry x="20" y="740" width="150" height="90" as="geometry" />
        </mxCell>
        <mxCell id="6QzcaGz9S-YZrrsxXRJN-85" value="MovieListItem" style="verticalLabelPosition=middle;verticalAlign=middle;html=1;shape=mxgraph.basic.layered_rect;dx=10;outlineConnect=0;whiteSpace=wrap;fillStyle=auto;labelPosition=center;align=center;fillColor=#ffe6cc;strokeColor=#d79b00;" parent="1" vertex="1">
          <mxGeometry x="220" y="740" width="140" height="90" as="geometry" />
        </mxCell>
        <mxCell id="6QzcaGz9S-YZrrsxXRJN-86" value="MovieActorItem" style="verticalLabelPosition=middle;verticalAlign=middle;html=1;shape=mxgraph.basic.layered_rect;dx=10;outlineConnect=0;whiteSpace=wrap;fillStyle=auto;labelPosition=center;align=center;fillColor=#ffe6cc;strokeColor=#d79b00;" parent="1" vertex="1">
          <mxGeometry x="552.5" y="620" width="125" height="80" as="geometry" />
        </mxCell>
        <mxCell id="6QzcaGz9S-YZrrsxXRJN-87" value="MovieSimilarListItem" style="verticalLabelPosition=middle;verticalAlign=middle;html=1;shape=mxgraph.basic.layered_rect;dx=10;outlineConnect=0;whiteSpace=wrap;fillStyle=auto;labelPosition=center;align=center;fillColor=#ffe6cc;strokeColor=#d79b00;" parent="1" vertex="1">
          <mxGeometry x="720" y="620" width="125" height="80" as="geometry" />
        </mxCell>
        <mxCell id="6QzcaGz9S-YZrrsxXRJN-89" value="TimelineItems" style="verticalLabelPosition=middle;verticalAlign=middle;html=1;shape=mxgraph.basic.layered_rect;dx=10;outlineConnect=0;whiteSpace=wrap;fillStyle=auto;labelPosition=center;align=center;fillColor=#ffe6cc;strokeColor=#d79b00;" parent="1" vertex="1">
          <mxGeometry x="1310" y="620" width="130" height="80" as="geometry" />
        </mxCell>
        <mxCell id="6QzcaGz9S-YZrrsxXRJN-90" value="ArticleListItem" style="verticalLabelPosition=middle;verticalAlign=middle;html=1;shape=mxgraph.basic.layered_rect;dx=10;outlineConnect=0;whiteSpace=wrap;fillStyle=auto;labelPosition=center;align=center;fillColor=#ffe6cc;strokeColor=#d79b00;" parent="1" vertex="1">
          <mxGeometry x="1145" y="1040" width="130" height="80" as="geometry" />
        </mxCell>
        <UserObject label="404-Not-Found" treeRoot="1" id="6QzcaGz9S-YZrrsxXRJN-91">
          <mxCell style="whiteSpace=wrap;html=1;align=center;treeFolding=1;treeMoving=1;newEdgeStyle={&quot;edgeStyle&quot;:&quot;elbowEdgeStyle&quot;,&quot;startArrow&quot;:&quot;none&quot;,&quot;endArrow&quot;:&quot;none&quot;};fillColor=#d5e8d4;strokeColor=#82b366;fillStyle=auto;" parent="1" vertex="1">
            <mxGeometry x="1552.5" y="290" width="120" height="60" as="geometry" />
          </mxCell>
        </UserObject>
        <UserObject label="CreateView" treeRoot="1" id="6QzcaGz9S-YZrrsxXRJN-93">
          <mxCell style="whiteSpace=wrap;html=1;align=center;treeFolding=1;treeMoving=1;newEdgeStyle={&quot;edgeStyle&quot;:&quot;elbowEdgeStyle&quot;,&quot;startArrow&quot;:&quot;none&quot;,&quot;endArrow&quot;:&quot;none&quot;};fillColor=#d5e8d4;strokeColor=#82b366;fillStyle=auto;" parent="1" vertex="1">
            <mxGeometry x="1620" y="845" width="132.5" height="70" as="geometry" />
          </mxCell>
        </UserObject>
        <mxCell id="6QzcaGz9S-YZrrsxXRJN-113" value="MovieListItem" style="verticalLabelPosition=middle;verticalAlign=middle;html=1;shape=mxgraph.basic.layered_rect;dx=10;outlineConnect=0;whiteSpace=wrap;fillStyle=auto;labelPosition=center;align=center;fillColor=#ffe6cc;strokeColor=#d79b00;" parent="1" vertex="1">
          <mxGeometry x="1668.7400000000002" y="740" width="124.37" height="80" as="geometry" />
        </mxCell>
        <mxCell id="XX8KxOLf1T6mspPhm48e-1" value="MovieReviewListItem" style="verticalLabelPosition=middle;verticalAlign=middle;html=1;shape=mxgraph.basic.layered_rect;dx=10;outlineConnect=0;whiteSpace=wrap;fillStyle=auto;labelPosition=center;align=center;fillColor=#ffe6cc;strokeColor=#d79b00;" vertex="1" parent="1">
          <mxGeometry x="892.5" y="620" width="125" height="80" as="geometry" />
        </mxCell>
        <mxCell id="XX8KxOLf1T6mspPhm48e-15" style="edgeStyle=orthogonalEdgeStyle;rounded=0;orthogonalLoop=1;jettySize=auto;html=1;" edge="1" parent="1" source="XX8KxOLf1T6mspPhm48e-7" target="XX8KxOLf1T6mspPhm48e-9">
          <mxGeometry relative="1" as="geometry">
            <Array as="points">
              <mxPoint x="963" y="400" />
              <mxPoint x="1090" y="400" />
              <mxPoint x="1090" y="760" />
              <mxPoint x="980" y="760" />
            </Array>
          </mxGeometry>
        </mxCell>
        <mxCell id="XX8KxOLf1T6mspPhm48e-19" style="edgeStyle=orthogonalEdgeStyle;rounded=0;orthogonalLoop=1;jettySize=auto;html=1;entryX=0.5;entryY=0;entryDx=0;entryDy=0;" edge="1" parent="1" source="XX8KxOLf1T6mspPhm48e-7" target="6QzcaGz9S-YZrrsxXRJN-71">
          <mxGeometry relative="1" as="geometry">
            <Array as="points">
              <mxPoint x="963" y="400" />
              <mxPoint x="1090" y="400" />
              <mxPoint x="1090" y="760" />
              <mxPoint x="1210" y="760" />
              <mxPoint x="1210" y="850" />
            </Array>
          </mxGeometry>
        </mxCell>
        <mxCell id="XX8KxOLf1T6mspPhm48e-20" style="edgeStyle=orthogonalEdgeStyle;rounded=0;orthogonalLoop=1;jettySize=auto;html=1;entryX=0.5;entryY=0;entryDx=0;entryDy=0;" edge="1" parent="1" source="XX8KxOLf1T6mspPhm48e-7" target="6QzcaGz9S-YZrrsxXRJN-67">
          <mxGeometry relative="1" as="geometry">
            <Array as="points">
              <mxPoint x="963" y="400" />
              <mxPoint x="1220" y="400" />
            </Array>
          </mxGeometry>
        </mxCell>
        <mxCell id="XX8KxOLf1T6mspPhm48e-62" style="edgeStyle=orthogonalEdgeStyle;rounded=0;orthogonalLoop=1;jettySize=auto;html=1;" edge="1" parent="1" source="XX8KxOLf1T6mspPhm48e-7" target="XX8KxOLf1T6mspPhm48e-61">
          <mxGeometry relative="1" as="geometry">
            <Array as="points">
              <mxPoint x="963" y="400" />
              <mxPoint x="1360" y="400" />
            </Array>
          </mxGeometry>
        </mxCell>
        <UserObject label="MainView" treeRoot="1" id="XX8KxOLf1T6mspPhm48e-7">
          <mxCell style="whiteSpace=wrap;html=1;align=center;treeFolding=1;treeMoving=1;newEdgeStyle={&quot;edgeStyle&quot;:&quot;elbowEdgeStyle&quot;,&quot;startArrow&quot;:&quot;none&quot;,&quot;endArrow&quot;:&quot;none&quot;};fillColor=#d5e8d4;strokeColor=#82b366;" vertex="1" parent="1">
            <mxGeometry x="902.5" y="290" width="120" height="60" as="geometry" />
          </mxCell>
        </UserObject>
        <mxCell id="XX8KxOLf1T6mspPhm48e-45" style="edgeStyle=orthogonalEdgeStyle;rounded=0;orthogonalLoop=1;jettySize=auto;html=1;" edge="1" parent="1" source="XX8KxOLf1T6mspPhm48e-9">
          <mxGeometry relative="1" as="geometry">
            <mxPoint x="980" y="940.0000000000002" as="targetPoint" />
          </mxGeometry>
        </mxCell>
        <UserObject label="SearchView" treeRoot="1" id="XX8KxOLf1T6mspPhm48e-9">
          <mxCell style="whiteSpace=wrap;html=1;align=center;treeFolding=1;treeMoving=1;newEdgeStyle={&quot;edgeStyle&quot;:&quot;elbowEdgeStyle&quot;,&quot;startArrow&quot;:&quot;none&quot;,&quot;endArrow&quot;:&quot;none&quot;};fillColor=#d5e8d4;strokeColor=#82b366;" vertex="1" parent="1">
            <mxGeometry x="920" y="850" width="120" height="60" as="geometry" />
          </mxCell>
        </UserObject>
        <mxCell id="XX8KxOLf1T6mspPhm48e-43" value="MovieListItem" style="verticalLabelPosition=middle;verticalAlign=middle;html=1;shape=mxgraph.basic.layered_rect;dx=10;outlineConnect=0;whiteSpace=wrap;fillStyle=auto;labelPosition=center;align=center;fillColor=#ffe6cc;strokeColor=#d79b00;" vertex="1" parent="1">
          <mxGeometry x="920" y="940" width="120" height="70" as="geometry" />
        </mxCell>
        <mxCell id="XX8KxOLf1T6mspPhm48e-54" style="edgeStyle=orthogonalEdgeStyle;rounded=0;orthogonalLoop=1;jettySize=auto;html=1;entryX=0;entryY=0;entryDx=60;entryDy=0;entryPerimeter=0;" edge="1" parent="1" source="XX8KxOLf1T6mspPhm48e-52" target="XX8KxOLf1T6mspPhm48e-53">
          <mxGeometry relative="1" as="geometry" />
        </mxCell>
        <UserObject label="ArticleDetailView" treeRoot="1" id="XX8KxOLf1T6mspPhm48e-52">
          <mxCell style="whiteSpace=wrap;html=1;align=center;treeFolding=1;treeMoving=1;newEdgeStyle={&quot;edgeStyle&quot;:&quot;elbowEdgeStyle&quot;,&quot;startArrow&quot;:&quot;none&quot;,&quot;endArrow&quot;:&quot;none&quot;};fillColor=#d5e8d4;strokeColor=#82b366;" vertex="1" parent="1">
            <mxGeometry x="1382.5" y="945" width="120" height="60" as="geometry" />
          </mxCell>
        </UserObject>
        <mxCell id="XX8KxOLf1T6mspPhm48e-53" value="ArticlecommentListItem" style="verticalLabelPosition=middle;verticalAlign=middle;html=1;shape=mxgraph.basic.layered_rect;dx=10;outlineConnect=0;whiteSpace=wrap;fillStyle=auto;labelPosition=center;align=center;fillColor=#ffe6cc;strokeColor=#d79b00;" vertex="1" parent="1">
          <mxGeometry x="1382.5" y="1040" width="130" height="80" as="geometry" />
        </mxCell>
        <mxCell id="XX8KxOLf1T6mspPhm48e-64" style="edgeStyle=orthogonalEdgeStyle;rounded=0;orthogonalLoop=1;jettySize=auto;html=1;" edge="1" parent="1" source="XX8KxOLf1T6mspPhm48e-61">
          <mxGeometry relative="1" as="geometry">
            <mxPoint x="1370.0000000000005" y="620" as="targetPoint" />
          </mxGeometry>
        </mxCell>
        <UserObject label="TimelineView" treeRoot="1" id="XX8KxOLf1T6mspPhm48e-61">
          <mxCell style="whiteSpace=wrap;html=1;align=center;treeFolding=1;treeMoving=1;newEdgeStyle={&quot;edgeStyle&quot;:&quot;elbowEdgeStyle&quot;,&quot;startArrow&quot;:&quot;none&quot;,&quot;endArrow&quot;:&quot;none&quot;};fillColor=#d5e8d4;strokeColor=#82b366;" vertex="1" parent="1">
            <mxGeometry x="1310" y="420" width="120" height="60" as="geometry" />
          </mxCell>
        </UserObject>
      </root>
    </mxGraphModel>
  </diagram>
</mxfile>
